<svg width="207" height="56" viewBox="0 0 207 56" fill="none" xmlns="http://www.w3.org/2000/svg">
<path d="M80.1422 11.5778V33.4568L88.0806 33.4566V26.6192H91.3137V36.6898C87.4171 36.6898 80.8057 36.6898 76.909 36.6898L76.9214 8.35368C80.8181 8.35368 87.4133 8.35238 91.3099 8.35238V18.433C90.2323 18.433 89.2111 18.433 88.1334 18.433V11.5855L80.1422 11.5778ZM73.3726 52.783C73.3726 53.5159 73.1766 54.0768 72.7844 54.4652C72.3923 54.8536 71.8665 55.0479 71.2068 55.0479H68.744V47.3957H71.0859C71.8114 47.3957 72.3557 47.5825 72.7185 47.9564C73.0814 48.3302 73.2627 48.8396 73.2627 49.4846C73.2627 49.8072 73.195 50.1039 73.0593 50.3752C72.9236 50.6463 72.6799 50.8627 72.3282 51.0238V51.0789C72.5113 51.1376 72.6691 51.2237 72.8009 51.3373C72.9328 51.4509 73.041 51.5847 73.1254 51.7385C73.2096 51.8924 73.2719 52.0591 73.3121 52.2387C73.3525 52.4183 73.3726 52.5997 73.3726 52.783ZM72.0313 49.5286C72.0313 49.2209 71.9489 48.9789 71.7839 48.803C71.619 48.6271 71.3533 48.5392 70.9869 48.5392H69.9974V50.54H70.9978C71.3569 50.54 71.619 50.4466 71.7839 50.2598C71.9489 50.0729 72.0313 49.8291 72.0313 49.5286ZM72.1413 52.7115C72.1413 52.3873 72.0606 52.1252 71.8994 51.9274C71.7382 51.7275 71.4705 51.6287 71.0968 51.6287H69.9974V53.8605H71.1077C71.3057 53.8605 71.4705 53.8312 71.6025 53.7725C71.7345 53.714 71.8407 53.6297 71.9214 53.5233C72.0021 53.4171 72.0588 53.2924 72.0917 53.1532C72.1249 53.0139 72.1413 52.8655 72.1413 52.7115ZM77.7595 53.3987H75.6375C75.6228 53.4646 75.5934 53.5746 75.5494 53.7285C75.5055 53.8825 75.4596 54.0474 75.4122 54.2233C75.3646 54.3992 75.3205 54.5641 75.2802 54.7181C75.2399 54.872 75.2087 54.9819 75.1867 55.0479H73.8783L76.0883 47.3957H77.2977L79.5186 55.0479H78.1883L77.7595 53.3987ZM76.3082 50.738L75.9124 52.2773H77.4736L77.0887 50.7491C77.0742 50.683 77.0503 50.5732 77.0173 50.4192C76.9844 50.2653 76.9477 50.1039 76.9075 49.9354C76.8671 49.767 76.8286 49.6074 76.7919 49.4572C76.7552 49.307 76.7334 49.1987 76.7259 49.1329H76.6709L76.3082 50.738ZM83.6635 55.0479L82.5201 51.8594H81.5416V55.0479H80.2881V47.3957H82.751C83.0662 47.3957 83.3594 47.4414 83.6306 47.5331C83.9017 47.6248 84.1344 47.7622 84.3287 47.9453C84.5229 48.1286 84.6751 48.3577 84.7849 48.6326C84.895 48.9075 84.9498 49.2281 84.9498 49.5946C84.9498 50.0783 84.8473 50.4961 84.6421 50.8481C84.4368 51.1997 84.1327 51.4674 83.7296 51.6505L85.0378 55.0479H83.6635ZM83.7185 49.5946C83.7185 49.2354 83.6269 48.9697 83.4436 48.7975C83.2604 48.6253 82.9965 48.5392 82.652 48.5392H81.5416V50.727H82.641C82.9709 50.727 83.2329 50.6318 83.4272 50.4412C83.6214 50.2505 83.7185 49.9685 83.7185 49.5946ZM89.9744 55.0479L88.1712 51.7605L87.3687 50.1883L87.3357 50.1993V55.0479H86.0714V47.3957H87.2258L88.9189 50.5181L89.8204 52.2333L89.8644 52.2223V47.3957H91.1178V55.0479H89.9744ZM95.7135 53.3987H93.5916C93.577 53.4646 93.5477 53.5746 93.5037 53.7285C93.4597 53.8825 93.4138 54.0474 93.3663 54.2233C93.3186 54.3992 93.2746 54.5641 93.2343 54.7181C93.1939 54.872 93.1629 54.9819 93.1407 55.0479H91.8325L94.0425 47.3957H95.2519L97.4727 55.0479H96.1423L95.7135 53.3987ZM94.2622 50.738L93.8666 52.2773H95.4277L95.0429 50.7491C95.0282 50.683 95.0044 50.5732 94.9714 50.4192C94.9385 50.2653 94.9018 50.1039 94.8615 49.9354C94.8212 49.767 94.7826 49.6074 94.746 49.4572C94.7094 49.307 94.6874 49.1987 94.68 49.1329H94.6251L94.2622 50.738ZM102.849 47.3957V52.728C102.849 53.0946 102.792 53.4263 102.679 53.723C102.565 54.0199 102.404 54.2708 102.195 54.4761C101.986 54.6814 101.739 54.8391 101.453 54.9489C101.167 55.0589 100.852 55.1138 100.507 55.1138C100.111 55.1138 99.7651 55.0497 99.4681 54.9214C99.1713 54.7932 98.9258 54.6191 98.7315 54.3992C98.5374 54.1793 98.3907 53.9209 98.2917 53.6241C98.1929 53.3273 98.1433 53.0103 98.1433 52.673V47.3957H99.3968V52.7061C99.3968 53.0359 99.4902 53.318 99.6771 53.5526C99.864 53.7873 100.141 53.9044 100.507 53.9044C100.815 53.9044 101.07 53.8037 101.271 53.6021C101.473 53.4006 101.574 53.1276 101.574 52.783V47.3957H102.849ZM104.124 55.0479V47.3957H105.378V53.8605H106.9V55.0479H104.124ZM195.233 33.1735V11.7903H198.736V29.8554H207V33.1735H195.233ZM188.167 28.5651H182.237C182.196 28.7494 182.114 29.0567 181.992 29.4868C181.869 29.9168 181.741 30.3777 181.608 30.8693C181.474 31.3609 181.351 31.8216 181.239 32.2518C181.126 32.6819 181.039 32.9891 180.978 33.1735H177.322L183.497 11.7903H186.876L193.083 33.1735H189.365L188.167 28.5651ZM184.111 21.13L183.005 25.4312H187.368L186.293 21.1607C186.252 20.9764 186.185 20.6693 186.093 20.2391C186.001 19.809 185.898 19.3584 185.786 18.8873C185.673 18.4163 185.566 17.9707 185.463 17.5508C185.361 17.131 185.299 16.829 185.279 16.6446H185.125L184.111 21.13ZM172.283 33.1735L169.088 24.2638H166.354V33.1735H162.851V11.7903H169.733C170.614 11.7903 171.433 11.9182 172.191 12.1744C172.949 12.4305 173.599 12.8145 174.142 13.3265C174.685 13.8384 175.11 14.4787 175.417 15.2467C175.724 16.0148 175.878 16.9109 175.878 17.9348C175.878 19.2866 175.591 20.4542 175.018 21.4373C174.444 22.4205 173.594 23.1681 172.468 23.6801L176.124 33.1735H172.283ZM172.437 17.9348C172.437 16.9313 172.181 16.1888 171.669 15.7076C171.157 15.2262 170.419 14.9855 169.457 14.9855H166.354V21.0994H169.426C170.348 21.0994 171.08 20.8331 171.623 20.3006C172.166 19.7681 172.437 18.9795 172.437 17.9348ZM156 14.9855V33.1735H152.498V14.9855H147.797V11.7903H160.731V14.9855H156ZM142.666 33.1735L137.628 23.9873L135.385 19.594L135.293 19.6248V33.1735H131.76V11.7903H134.986L139.717 20.5157L142.236 25.3084L142.359 25.2777V11.7903H145.862V33.1735H142.666ZM117.289 33.1735V11.7903H129.179V15.0469H120.792V20.7614H128.012V23.9566H120.792V29.8554H129.179V33.1735H117.289ZM46.023 33.1735V11.7903H57.9127V15.0469H49.5254V20.7614H56.7453V23.9565H49.5254V29.8554H57.9127V33.1735H46.023ZM39.1718 14.9855V33.1735H35.6694V14.9855H30.9687V11.7903H43.9031V14.9855H39.1718ZM29.4633 26.6909C29.4633 27.715 29.3045 28.6367 28.9871 29.456C28.6696 30.2752 28.219 30.9769 27.6353 31.5605C27.0515 32.1442 26.3602 32.5897 25.5615 32.8969C24.7627 33.2041 23.8819 33.3578 22.9192 33.3578C21.7519 33.3578 20.7482 33.1684 19.9085 32.7895C19.0686 32.4105 18.3876 31.8984 17.8653 31.2533C17.343 30.6081 16.959 29.8605 16.7131 29.0105C16.4674 28.1604 16.3445 27.2645 16.3445 26.3222V18.242C16.3445 17.4842 16.4623 16.7162 16.6978 15.9378C16.9334 15.1596 17.3123 14.4528 17.8346 13.8179C18.3569 13.183 19.0329 12.6608 19.8623 12.2512C20.6918 11.8415 21.7108 11.6367 22.9192 11.6367C24.0458 11.6367 25.0187 11.8312 25.8379 12.2204C26.6573 12.6096 27.3383 13.1165 27.881 13.7411C28.4238 14.3659 28.8232 15.0724 29.0793 15.861C29.3353 16.6497 29.4633 17.4434 29.4633 18.242V26.6909ZM25.8993 18.1857C25.8993 17.9195 25.8533 17.6071 25.7612 17.2487C25.6691 16.8903 25.5103 16.5471 25.2849 16.2144C25.0596 15.8866 24.7575 15.605 24.3786 15.3695C23.9998 15.1339 23.5133 15.0161 22.9192 15.0161C22.3253 15.0161 21.8287 15.1237 21.4292 15.3388C21.0298 15.5538 20.7123 15.82 20.4768 16.1376C20.2413 16.4602 20.0722 16.8032 19.9699 17.1719C19.8674 17.5406 19.8162 17.8888 19.8162 18.2164L19.847 26.4093C19.847 27.4334 20.0826 28.2935 20.5535 28.9952C21.0247 29.6916 21.8235 30.0397 22.95 30.0397C23.7489 30.0397 24.44 29.7683 25.0238 29.2255C25.6076 28.6778 25.8993 27.9352 25.8993 26.993V18.1857ZM9.55485 33.1735V23.9258H3.5332V33.1735H0V11.7903H3.5332V20.7614H9.55485V11.7903H13.0573V33.1735H9.55485ZM85.6014 30.4571H82.5532C82.5532 27.799 82.5532 16.7987 82.5532 14.1415H85.6265V20.8385H93.7164V8.35238H97.0338C97.0338 17.7823 97.0338 27.2598 97.0338 36.6898H93.7164V24.1561H85.6014V30.4571ZM60.555 33.1735V11.7903H64.0574V29.8554H68.744V3.0087V0.27428V0.224488V0H68.9685H105.162H105.386V0.224488V0.27428V3.0087V12.1683C106.195 11.814 107.152 11.6367 108.257 11.6367C109.977 11.6367 111.375 12.0873 112.45 12.9886C113.526 13.8896 114.237 15.0161 114.586 16.368L111.237 17.474C111.175 17.1668 111.073 16.8697 110.93 16.5831C110.786 16.2963 110.592 16.0352 110.346 15.7996C110.1 15.5641 109.803 15.3747 109.455 15.2313C109.107 15.0879 108.707 15.0161 108.257 15.0161C107.724 15.0161 107.269 15.1084 106.89 15.2927C106.511 15.477 106.198 15.7178 105.953 16.0147C105.707 16.3117 105.522 16.6446 105.4 17.0133L105.386 17.0538V27.8745L105.4 27.9198C105.522 28.3295 105.712 28.6879 105.968 28.9951C106.224 29.3024 106.541 29.5429 106.92 29.7171C107.299 29.8912 107.745 29.9782 108.257 29.9782C109.015 29.9782 109.66 29.7632 110.192 29.333C110.725 28.903 111.063 28.309 111.206 27.551L114.555 28.6264C114.207 30.1216 113.469 31.2841 112.343 32.1135C111.216 32.9429 109.854 33.3577 108.257 33.3577C107.159 33.3577 106.202 33.1862 105.386 32.8428V41.986V44.7666V44.77V44.9946H105.162H68.9685H68.744V44.77V44.7666V41.986V33.1735H60.555ZM72.3568 41.1918H101.679V3.70779H72.3568V41.1918Z" fill="#211F1C"/>
</svg>
